<svg xmlns="http://www.w3.org/2000/svg" version="1.1" viewBox="0 0 1315.5333 1739.48">
  <g transform="matrix(1.3333333,0,0,-1.3333333,0,1737.48)">
    <g transform="scale(0.1)">
      <path d="m 4580.99,9634.85 5.62,0.26 c 33.62,42.27 74.43,78.07 120.3,105.84 l -135.11,271.75 90.25,-5.6 c -7.67,67.2 -26.93,144.8 -71.05,210 -71.64,105.7 -181.95,162.2 -256.72,190.2 -55.89,-24.4 -117.15,-37.7 -180.63,-37.7 -5.71,0 -11.4,0.1 -17.09,0.3 l 127.1,-172.1 -95.11,-6.6 c 16.42,-115.1 48.54,-255.24 111.57,-362.16 108.99,-184.89 267.06,-194.25 297.65,-194.25 1.77,0 2.87,0.03 3.22,0.06" style="fill:currentColor;fill-opacity:1;fill-rule:nonzero;stroke:none" />
      <path d="m 3863.79,10924 c 56.5,160.3 232.17,244.3 392.4,187.9 160.2,-56.5 244.29,-232.2 187.79,-392.4 -56.49,-160.2 -232.16,-244.3 -392.36,-187.8 -160.22,56.4 -244.32,232.1 -187.83,392.3 z m 169.16,-445.3 c 39.04,-13.7 79.67,-20.7 120.74,-20.7 154.37,0 292.51,97.7 343.79,243.1 66.77,189.3 -32.99,397.7 -222.34,464.5 -39.05,13.8 -79.66,20.8 -120.74,20.8 -154.35,0 -292.52,-97.7 -343.8,-243.1 -66.77,-189.4 32.99,-397.8 222.35,-464.6" style="fill:currentColor;fill-opacity:1;fill-rule:nonzero;stroke:none" />
      <path d="m 4590.09,10701.4 226.69,16.9 -44.19,-82.5 c 143.18,-63.3 341.13,-129.1 552.26,-133.8 373.65,-8.1 504.78,134.1 506.01,135.4 l 12.98,14.6 c -4.91,59.3 2.17,120.4 23.17,179.9 13.73,39 32.55,74.6 55.31,106.7 l -234.16,20.8 53.43,76.1 c -141.8,79.8 -344.71,161.5 -580.88,161.5 -15.14,0 -30.48,-0.3 -45.56,-1 -436.63,-19.4 -549.69,-177.7 -551.97,-181 46.72,-99.1 55.94,-209.2 26.91,-313.6" style="fill:currentColor;fill-opacity:1;fill-rule:nonzero;stroke:none" />
      <path d="m 4463.34,10492.1 c 46.86,-11.6 125.79,-52 220.77,-192.2 53.22,-78.5 96.64,-187.4 106.15,-300.74 l 100.6,-6.25 -157.34,-237.11 c 62.94,32.54 133.87,50.65 207.83,50.65 51.08,0 101.58,-8.66 150.11,-25.77 46.87,-16.52 89.88,-40.28 127.98,-70.02 l 582.95,502.74 -65.03,72.2 273.27,58.2 c -57.76,44.9 -102.58,103.3 -131.38,168.8 -72.57,-53.7 -232.47,-137.7 -522.85,-137.7 -11.26,0 -22.67,0.2 -34.34,0.4 -147.24,3.3 -303.14,33.5 -463.45,90 -48.82,17.3 -97.73,36.9 -145.98,58.5 l -46.71,-87.3 -104.89,187.8 c -24.5,-50.3 -57.84,-94.9 -97.69,-132.2" style="fill:currentColor;fill-opacity:1;fill-rule:nonzero;stroke:none" />
      <path d="m 5230.92,9251.15 c -56.5,-160.21 -232.18,-244.27 -392.38,-187.78 -160.2,56.49 -244.3,232.15 -187.81,392.33 56.49,160.24 232.17,244.34 392.37,187.83 160.23,-56.47 244.32,-232.14 187.82,-392.38 z m -168.87,446.13 c -39.05,13.79 -79.68,20.77 -120.77,20.77 -141.59,0 -269.35,-82.36 -329.1,-208.2 v -0.05 h -0.03 c -5.37,-11.31 -10.39,-22.85 -14.63,-34.84 -66.75,-189.37 33,-397.74 222.36,-464.53 39.06,-13.78 79.68,-20.75 120.75,-20.75 154.34,0 292.5,97.69 343.78,243.1 66.75,189.34 -33,397.71 -222.36,464.5" style="fill:currentColor;fill-opacity:1;fill-rule:nonzero;stroke:none" />
      <path d="m 4099.18,11884.8 6.39,77.8 c -76.77,-30.6 -140.5,-85.7 -166.27,-148.2 -23.53,-57 -13.79,-113.9 29.78,-173.9 51.57,-70.9 120.9,-110 195.21,-110 22.49,0 45.28,3.6 67.74,10.8 93.6,29.7 171.56,114.3 172.74,205.7 l 0.23,18.6 c -45.34,67.1 -71.57,146.4 -74.53,228.5 l -231.29,-109.3" style="fill:currentColor;fill-opacity:1;fill-rule:nonzero;stroke:none" />
      <path d="m 6986.47,10816.3 -7.99,-77.6 c 77.4,29 142.24,82.8 169.31,144.7 24.7,56.5 16.13,113.6 -26.21,174.5 -51.2,73.5 -121.25,114 -197.26,114 -21.08,0 -42.46,-3.1 -63.61,-9.4 -94.18,-27.8 -162.07,-111 -165.12,-202.4 l -6.39,-134.6 c 14.2,-42.2 22.1,-86.7 22.79,-132.1 l 274.48,122.9" style="fill:currentColor;fill-opacity:1;fill-rule:nonzero;stroke:none" />
      <path d="m 2780.91,11281.6 764.87,-265.8 30.68,87 136.46,-179.8 c 3.84,16.7 8.53,33.3 14.31,49.6 63.71,180.8 235.39,302.2 427.22,302.2 51.07,0 101.58,-8.7 150.08,-25.8 72.95,-25.7 136.61,-68.8 186.75,-125.1 66.74,65.1 238.04,181.8 618.23,198.7 16.95,0.8 34.19,1.2 51.18,1.2 269.05,0 497.61,-94.4 654.04,-184.1 l 57.06,81.4 102.96,-221.4 c 52.6,50.7 117.15,87.4 187.13,106.7 -7.87,76.9 -49.63,331.2 -263.21,500.7 -139.98,111.2 -342.63,167.1 -510.02,195.3 l -9.45,-98.9 -208.81,148.7 c -84.36,-218.1 -328.08,-331.4 -550.02,-253.1 -41.65,14.6 -79.63,35.1 -113.45,60.1 -31.4,-110.4 -118.84,-201.3 -236.48,-238.7 -35.7,-11.4 -71.96,-17.1 -107.79,-17.1 -114.72,0 -219.87,57.7 -296.09,162.7 -87.96,121 -72.7,228.1 -44.42,296.6 44.84,108.7 162.37,201.4 294.67,236.4 l 8.58,104.3 207.72,-143.8 c 3.65,31.5 10.74,63.1 21.71,94.2 79.76,226.1 328.62,345.3 554.76,265.5 205.43,-72.4 322.5,-284.4 282.51,-492.1 l 217.98,99.6 -9.19,-96.3 c 185.08,-30.4 414.39,-93.2 577.65,-222.8 251.62,-199.7 301.31,-485.8 311.1,-585.7 43.97,-1.2 88.47,-9.1 132.12,-24.5 58.09,-20.5 109.04,-52.2 151.45,-91.7 20.87,129.6 117.56,238.7 251.62,278.3 33.58,9.9 67.63,14.9 101.18,14.9 117.5,0 223.88,-59.9 299.6,-168.8 85.45,-122.8 67.99,-217.8 38.31,-285.7 -47.07,-107.8 -166.48,-209.8 -299.46,-242.1 l -10.72,-104.1 -241.93,175 c -1.39,-43.4 -9.31,-87.4 -24.51,-130.6 -79.74,-226.1 -328.61,-345.2 -554.76,-265.5 -33.12,11.7 -63.87,27.1 -92.1,45.4 l -89.05,-274.5 -64.15,71.2 -571.08,-512.54 c 12.21,-18.22 23.22,-37.43 32.85,-57.58 52.27,-109.17 58.92,-231.98 18.77,-345.82 -63.71,-180.7 -235.39,-302.1 -427.2,-302.1 -51.07,0 -101.57,8.68 -150.1,25.78 -235.34,82.99 -359.31,341.98 -276.34,577.33 1.08,3.05 2.27,6.05 3.41,9.07 -22.1,3.66 -48.27,9.71 -76.68,19.72 -76.88,27.11 -186.09,89.28 -269.92,231.51 -74.87,127.06 -111.33,288.83 -129.12,417.83 l -97.07,-6.6 109.25,204.9 c -17.01,3.9 -33.85,8.7 -50.46,14.6 -113.81,40.1 -205.29,122.3 -257.54,231.5 -33.56,70.1 -48.2,145.8 -43.83,221.2 l -232.03,-46.8 31.76,90 -856.82,288.9 z M 4925.2,13031.1 2507.57,11226.6 v 0 L 1881.63,10759.4 4925.2,8530.23 7968.75,10759.4 4925.2,13031.1" style="fill:currentColor;fill-opacity:1;fill-rule:nonzero;stroke:none" />
      <path d="m 5851.96,6042.91 -164.35,25.47 c -57.11,-156.82 -235.78,-242.77 -507.48,-242.77 -0.03,0 0,0 -0.03,0 -85.82,0 -147.66,8.82 -150.25,9.2 l -32.73,4.72 22.72,142.78 -251.95,39.02 c -18,-34.71 -53.93,-57.66 -95.04,-57.66 -5.66,0 -11.38,0.47 -16.99,1.35 -28.31,4.49 -53.18,19.79 -70.02,42.99 -9.19,12.67 -15.27,26.93 -18.27,41.85 l -331.68,-128.88 28.42,178.42 -267.77,41.48 c -12.6,-23.09 -33.36,-40.51 -58.15,-49.28 l -238.45,173.77 110.66,-17.15 c 18.86,31.39 53,51.74 91.74,51.74 5.67,0 11.38,-0.47 16.98,-1.35 44,-7.03 77.51,-40 87.43,-80.78 l 269.75,-41.81 29.83,187.32 279.63,-229.06 c 19.57,26.97 51.19,44.1 86.68,44.1 5.65,0 11.37,-0.47 16.99,-1.37 28.31,-4.49 53.17,-19.76 70.02,-42.97 7.88,-10.86 13.46,-22.91 16.81,-35.48 l 255.61,-39.63 41.33,259.63 -1356.89,210.27 -36.24,-249.12 -70.89,51.66 40.7,279.8 5.66,-0.84 0.97,6.29 1244.6,-192.85 7.31,-5.37 4.78,3.5 172.21,-26.68 26.45,166.09 32.18,-5.08 c 22.17,-3.49 521.87,-86.48 551.7,-410.6 l 244.53,-37.89 z m -4824.07,3207.06 13.35,6.63 15.02,-11.02 z M 2063.5,8506.38 744.121,8710.84 c -19.601,-26.72 -51.055,-43.63 -86.351,-43.63 -5.657,0 -11.368,0.46 -16.989,1.35 -28.308,4.5 -53.168,19.77 -70.004,42.98 -6.414,8.84 -11.336,18.43 -14.777,28.45 l -27.145,4.23 -150.281,-58.4 -132.597,96.63 0.863,5.47 -10.633,1.64 -54.918,40.03 52.356,38.91 25.402,-3.94 4.117,25.88 127.664,94.89 180.051,-147.51 c 19.582,26.98 51.199,44.07 86.695,44.07 5.664,0 11.367,-0.44 16.989,-1.33 28.296,-4.5 53.167,-19.77 70.003,-42.98 11.137,-15.34 17.758,-32.97 19.743,-51.32 L 1927.81,8605.95 Z m -1149.363,-210.85 2.215,13.91 32.183,-5.09 c 22.735,-3.61 548.545,-90.97 552.955,-436.86 z M 2363.57,7239.24 c 31.17,17.68 95.9,60.25 142.96,130.83 l -409.57,63.48 -136.88,99.75 583.15,-90.37 c 6.8,19.11 12.09,39.49 15.21,61.34 5.56,39.02 3.85,75.79 -2.26,109.64 l -897.61,139.1 -136.87,99.76 1009.69,-156.48 c -35.54,83.83 -89.63,135.87 -90.52,136.7 l -76.83,72.47 104.27,-16.48 c 25.6,-4.06 607.31,-100.12 640.97,-431.79 l 244.04,-37.82 20.03,125.74 439.68,-322.68 c -18.01,-13.55 -40.24,-21.66 -64.4,-21.66 -5.64,0 -11.34,0.44 -16.95,1.33 -45.45,7.25 -79.59,42.23 -88.22,84.88 l -331.74,-128.89 29.4,184.63 -243.07,37.66 c -77.58,-185.58 -332.62,-225.91 -539.01,-225.91 -0.02,0 -0.02,0 -0.04,0 -29.49,0 -57.09,0.84 -81.95,2.07 z m 1052.84,-203.34 -74.16,-509.86 -70.9,51.68 79.03,543.36 2.33,-0.34 0.54,3.46 752.5,-116.6 361.09,-265 c -43.66,-5.78 -90.5,-8.89 -140.71,-8.89 -0.03,0 0,0 -0.03,0 -85.83,0 -147.65,8.83 -150.24,9.2 l -32.74,4.75 27.3,171.38 z m 5700.7,1417.87 28.64,179.84 -244.16,37.85 c -79.79,-181.74 -332.45,-221.31 -537.13,-221.31 -0.02,0 -0.02,0 -0.04,0 -114.71,0 -201.53,12.55 -205.17,13.08 l -111.29,16.35 102.78,45.72 c 1.16,0.52 79.43,36.64 141.49,113.65 l -285.09,44.18 88.63,64.79 241.34,-37.41 c 12.48,26.75 22.04,56.49 26.75,89.44 3.52,24.76 4.11,48.61 2.52,71.4 l -83.93,13.02 292.74,213.96 c 159.43,-65.98 325.24,-175.93 339.95,-350.46 l 242.81,-37.62 29.61,185.85 264.33,-216.54 -278.36,-203.88 z m -1834.45,-300.17 88.66,64.8 1197.55,-185.58 -88.5,-64.82 z m 53.52,-740.49 c -18.87,-31.45 -53.05,-51.87 -91.83,-51.87 -5.66,0 -11.36,0.46 -16.96,1.34 -28.33,4.53 -53.19,19.78 -70.03,43.01 -5.43,7.47 -9.69,15.54 -12.99,23.92 -65.41,-142.8 -239.79,-220.71 -498.45,-220.71 -0.03,0 -0.03,0 -0.05,0 -85.82,0 -147.67,8.82 -150.26,9.2 l -32.74,4.74 35.03,220 -154.97,24.01 88.65,64.8 78.53,-12.17 12.54,78.72 354.34,258.99 c 131.31,-60.43 265.35,-160.54 283.94,-320.63 19.74,24.34 49.79,39.5 83.25,39.5 5.64,0 11.35,-0.46 16.95,-1.35 45.51,-7.26 79.69,-42.3 88.27,-85.02 l 394.34,-61.1 -88.5,-64.82 z M 5591.79,6907.19 c 19.56,27.01 51.21,44.1 86.71,44.1 5.63,0 11.34,-0.45 16.95,-1.35 28.33,-4.51 53.18,-19.74 70.02,-42.99 10.61,-14.62 17.22,-31.32 19.52,-48.75 l 322.3,-49.96 79.16,544.13 87.73,64.13 -90.21,-620.11 1.71,-0.29 -11.97,-76.68 -406.97,63.08 c -19.46,-28.07 -51.77,-45.92 -88.07,-45.92 -5.64,0 -11.37,0.47 -16.97,1.35 -28.31,4.51 -53.16,19.77 -70.02,42.99 -6.95,9.61 -12.1,20.1 -15.53,31.11 l -21.72,3.36 -219.15,-85.13 249.7,182.51 z m 3868.17,1645.08 c 0,0 0,0 0,0.01 l 388.02,284.2 -897.06,669.57 -4038.16,-2951.52 -302.12,221.27 c -1.67,-0.58 -3.46,-1.07 -5.14,-1.66 l -410.22,301.06 0.69,4.33 -226.4,165.8 -7.76,1.2 -228.51,167.69 c 1.58,0.23 3.12,0.57 4.71,0.72 l -1440.75,1055.22 -3.52,0.55 -135.67,99.56 3.19,-0.49 -873.77,639.97 -1,0.15 -135.64,99.54 0.63,-0.09 L 897.207,9495.59 0,8828.74 l 4931.06,-3593.5 303.63,222.36 190.04,139.2 665.84,487.67 h 0.01 l 609.32,446.29 2046.36,1498.8 713.7,522.71" style="fill:currentColor;fill-opacity:1;fill-rule:nonzero;stroke:none" />
      <path d="m 330.449,4099.85 -120.554,424.56 h -3.625 c 5.644,-72.31 8.464,-128.49 8.464,-168.53 V 4099.85 H 73.6133 v 589.47 H 285.691 L 408.66,4270.8 h 3.235 l 120.546,418.52 H 744.922 V 4099.85 H 598.563 v 258.44 c 0,13.44 0.207,28.36 0.609,44.76 0.406,16.38 2.215,56.58 5.445,120.55 h -3.633 L 482.051,4099.85 H 330.449" style="fill:currentColor;fill-opacity:1;fill-rule:nonzero;stroke:none" />
      <path d="M 1221.89,4099.85 H 871.926 v 589.47 h 349.964 v -127.81 h -190.71 v -92.74 h 176.6 v -127.81 h -176.6 v -111.28 h 190.71 v -129.83" style="fill:currentColor;fill-opacity:1;fill-rule:nonzero;stroke:none" />
      <path d="m 1581.94,4099.85 -120.55,424.56 h -3.63 c 5.65,-72.31 8.47,-128.49 8.47,-168.53 v -256.03 h -141.12 v 589.47 h 212.08 l 122.97,-418.52 h 3.23 l 120.55,418.52 h 212.48 v -589.47 h -146.36 v 258.44 c 0,13.44 0.2,28.36 0.6,44.76 0.41,16.38 2.22,56.58 5.45,120.55 h -3.63 l -118.94,-423.75 h -151.6" style="fill:currentColor;fill-opacity:1;fill-rule:nonzero;stroke:none" />
      <path d="m 2269.38,4395.39 c 0,-113.97 39.65,-170.96 118.95,-170.96 40.31,0 70.21,13.85 89.71,41.53 19.48,27.68 29.23,70.83 29.23,129.43 0,58.87 -9.88,102.34 -29.63,130.43 -19.77,28.09 -49.27,42.13 -88.51,42.13 -79.83,0 -119.75,-57.52 -119.75,-172.56 z m 405.61,0 c 0,-99.19 -24.33,-174.59 -72.98,-226.19 -48.65,-51.61 -119.88,-77.41 -213.68,-77.41 -92.47,0 -163.37,25.93 -212.69,77.81 -49.32,51.88 -73.98,127.41 -73.98,226.59 0,98.11 24.52,173.03 73.58,224.79 49.05,51.74 120.36,77.61 213.89,77.61 93.81,0 164.9,-25.68 213.29,-77.01 48.38,-51.34 72.57,-126.74 72.57,-226.19" style="fill:currentColor;fill-opacity:1;fill-rule:nonzero;stroke:none" />
      <path d="m 2940.69,4434.09 h 29.85 c 55.63,0 83.45,24.6 83.45,73.78 0,40.59 -27.28,60.89 -81.84,60.89 h -31.46 z m 0,-119.74 v -214.5 h -159.25 v 589.47 h 193.13 c 160.2,0 240.29,-58.07 240.29,-174.18 0,-68.28 -33.33,-121.1 -99.99,-158.46 l 171.76,-256.83 h -180.62 l -124.99,214.5 h -40.33" style="fill:currentColor;fill-opacity:1;fill-rule:nonzero;stroke:none" />
      <path d="m 3340.25,4099.85 v 589.47 h 160.07 v -589.47 h -160.07" style="fill:currentColor;fill-opacity:1;fill-rule:nonzero;stroke:none" />
      <path d="m 3927.29,4340.96 -25.4,96.76 c -5.91,21.5 -13.1,49.32 -21.57,83.46 -8.46,34.13 -14.04,58.6 -16.73,73.38 -2.42,-13.7 -7.19,-36.28 -14.31,-67.73 -7.12,-31.46 -22.92,-93.41 -47.38,-185.87 z m 62.09,-241.11 -29.02,110.47 H 3768.85 L 3739,4099.85 h -174.98 l 192.33,591.88 h 212.48 l 194.73,-591.88 h -174.18" style="fill:currentColor;fill-opacity:1;fill-rule:nonzero;stroke:none" />
      <path d="m 4227.27,4099.85 v 589.47 h 159.25 v -460.85 h 227.01 v -128.62 h -386.26" style="fill:currentColor;fill-opacity:1;fill-rule:nonzero;stroke:none" />
      <path d="m 5423.53,4689.32 v -354.81 c 0,-77.15 -21.84,-136.89 -65.52,-179.22 -43.68,-42.34 -106.64,-63.5 -188.89,-63.5 -80.38,0 -142.13,20.56 -185.27,61.69 -43.14,41.12 -64.71,100.25 -64.71,177.4 v 358.44 h 160.07 v -345.94 c 0,-41.67 7.79,-71.91 23.38,-90.72 15.58,-18.82 38.57,-28.23 68.94,-28.23 32.52,0 56.12,9.34 70.76,28.03 14.65,18.67 21.98,49.25 21.98,91.72 v 345.14 h 159.26" style="fill:currentColor;fill-opacity:1;fill-rule:nonzero;stroke:none" />
      <path d="M 6108.54,4099.85 H 5899.7 l -215.31,415.29 h -3.63 c 5.11,-65.32 7.67,-115.19 7.67,-149.59 v -265.7 H 5547.3 v 589.47 h 208.05 l 214.5,-409.65 h 2.42 c -3.76,59.4 -5.65,107.11 -5.65,143.13 v 266.52 h 141.92 v -589.47" style="fill:currentColor;fill-opacity:1;fill-rule:nonzero;stroke:none" />
      <path d="m 6235.96,4099.85 v 589.47 h 160.07 v -589.47 h -160.07" style="fill:currentColor;fill-opacity:1;fill-rule:nonzero;stroke:none" />
      <path d="m 6854.45,4689.32 h 178.21 l -193.13,-589.47 h -187.48 l -192.32,589.47 h 179.01 l 80.23,-298.77 c 16.67,-66.39 25.82,-112.63 27.43,-138.69 1.87,18.81 5.64,42.32 11.29,70.54 5.64,28.23 10.61,50.41 14.91,66.54 l 81.85,300.38" style="fill:currentColor;fill-opacity:1;fill-rule:nonzero;stroke:none" />
      <path d="m 7446.33,4099.85 h -349.97 v 589.47 h 349.97 v -127.81 h -190.71 v -92.74 h 176.6 v -127.81 h -176.6 v -111.28 h 190.71 v -129.83" style="fill:currentColor;fill-opacity:1;fill-rule:nonzero;stroke:none" />
      <path d="m 7708.8,4434.09 h 29.84 c 55.64,0 83.46,24.6 83.46,73.78 0,40.59 -27.29,60.89 -81.85,60.89 h -31.45 z m 0,-119.74 v -214.5 h -159.26 v 589.47 h 193.14 c 160.19,0 240.29,-58.07 240.29,-174.18 0,-68.28 -33.33,-121.1 -99.99,-158.46 l 171.76,-256.83 h -180.63 l -124.99,214.5 h -40.32" style="fill:currentColor;fill-opacity:1;fill-rule:nonzero;stroke:none" />
      <path d="m 8493.81,4278.87 c 0,-36.56 -9.27,-69.02 -27.82,-97.37 -18.55,-28.36 -45.3,-50.4 -80.24,-66.13 -34.94,-15.72 -75.94,-23.58 -122.97,-23.58 -39.24,0 -72.16,2.76 -98.78,8.26 -26.61,5.51 -54.29,15.13 -83.05,28.83 v 141.92 c 30.37,-15.58 61.95,-27.75 94.74,-36.48 32.8,-8.74 62.9,-13.11 90.32,-13.11 23.65,0 40.98,4.09 52.01,12.3 11.02,8.19 16.53,18.75 16.53,31.65 0,8.06 -2.22,15.11 -6.65,21.17 -4.43,6.04 -11.56,12.15 -21.37,18.34 -9.81,6.18 -35.95,18.81 -78.42,37.9 -38.44,17.47 -67.27,34.4 -86.49,50.8 -19.22,16.4 -33.46,35.21 -42.73,56.45 -9.28,21.23 -13.91,46.36 -13.91,75.4 0,54.29 19.76,96.62 59.27,127 39.51,30.37 93.8,45.55 162.89,45.55 61,0 123.23,-14.1 186.67,-42.32 l -48.78,-122.98 c -55.11,25.27 -102.69,37.9 -142.74,37.9 -20.7,0 -35.75,-3.63 -45.15,-10.89 -9.42,-7.25 -14.11,-16.26 -14.11,-27.01 0,-11.56 5.97,-21.9 17.94,-31.04 11.96,-9.14 44.41,-25.8 97.37,-50 50.8,-22.85 86.08,-47.38 105.84,-73.58 19.76,-26.21 29.63,-59.21 29.63,-98.98" style="fill:currentColor;fill-opacity:1;fill-rule:nonzero;stroke:none" />
      <path d="m 8584.93,4099.85 v 589.47 H 8745 v -589.47 h -160.07" style="fill:currentColor;fill-opacity:1;fill-rule:nonzero;stroke:none" />
      <path d="M 9132.46,4099.85 H 8973.2 v 459.23 h -143.93 v 130.24 H 9276 v -130.24 h -143.54 v -459.23" style="fill:currentColor;fill-opacity:1;fill-rule:nonzero;stroke:none" />
      <path d="m 9570.73,4470.78 101.6,218.54 H 9844.9 L 9650.97,4330.07 V 4099.85 H 9490.5 v 225.39 l -193.94,364.08 h 173.37 l 100.8,-218.54" style="fill:currentColor;fill-opacity:1;fill-rule:nonzero;stroke:none" />
      <path d="m 612.488,3541.84 c -81.133,0 -144.441,-33.24 -189.89,-99.7 -45.469,-66.46 -68.196,-158.11 -68.196,-274.91 0,-242.83 92.356,-364.23 277.082,-364.23 55.801,0 109.903,7.7 162.278,23.3 52.351,15.5 105,34.2 157.957,56.1 v -288.3 c -105.313,-46.6 -224.422,-69.9 -357.356,-69.9 -190.476,0 -336.504,55.2 -438.054,165.7 C 54.7344,2800.4 3.95703,2960.1 3.95703,3168.95 c 0,130.62 24.59767,245.43 73.80857,344.4 49.1994,98.98 119.9684,175.07 212.3324,228.31 92.363,53.22 200.965,79.85 325.847,79.85 136.379,0 266.711,-29.65 391.005,-88.91 L 902.512,3464.15 c -46.614,21.87 -93.227,40.28 -139.824,55.25 -46.614,14.96 -96.68,22.44 -150.2,22.44" style="fill:currentColor;fill-opacity:1;fill-rule:nonzero;stroke:none" />
      <path d="m 1510.19,3174.12 c 0,-244.02 84.87,-366.02 254.62,-366.02 86.32,0 150.34,29.7 192.07,89 41.7,59.2 62.57,151.57 62.57,277.02 0,126.03 -21.15,219.1 -63.44,279.24 -42.3,60.13 -105.45,90.2 -189.47,90.2 -170.91,0 -256.35,-123.15 -256.35,-369.44 z m 868.34,0 c 0,-212.32 -52.08,-373.72 -156.24,-484.22 -104.16,-110.5 -256.66,-165.7 -457.48,-165.7 -197.95,0 -349.72,55.5 -455.31,166.6 -105.6,111 -158.4,272.7 -158.4,485.06 0,210.02 52.51,370.43 157.53,481.21 105.01,110.76 257.66,166.15 457.91,166.15 200.82,0 353.04,-54.96 456.61,-164.86 103.59,-109.92 155.38,-271.33 155.38,-484.24" style="fill:currentColor;fill-opacity:1;fill-rule:nonzero;stroke:none" />
      <path d="m 3156.24,2541.4 -258.09,908.93 h -7.77 c 12.08,-154.79 18.13,-275.06 18.13,-360.8 V 2541.4 H 2606.4 v 1261.98 h 454.02 l 263.27,-895.98 h 6.91 l 258.08,895.98 h 454.89 V 2541.4 h -313.33 v 553.32 c 0,28.76 0.43,60.7 1.29,95.81 0.87,35.1 4.75,121.12 11.65,258.08 h -7.76 L 3480.78,2541.4 h -324.54" style="fill:currentColor;fill-opacity:1;fill-rule:nonzero;stroke:none" />
      <path d="m 4656.43,3238 h 62.14 c 51.21,0 91.93,14.38 122.13,43.15 30.22,28.77 45.33,68.48 45.33,119.12 0,85.16 -47.19,127.76 -141.57,127.76 h -88.03 z m 574.86,164 c 0,-140.98 -41.58,-249.89 -124.73,-326.71 -83.16,-76.79 -201.27,-115.19 -354.32,-115.19 h -95.81 v -418.7 h -340.96 v 1261.98 h 436.77 c 159.38,0 279.08,-34.82 359.07,-104.45 79.98,-69.63 119.98,-168.62 119.98,-296.93" style="fill:currentColor;fill-opacity:1;fill-rule:nonzero;stroke:none" />
      <path d="m 6505.32,3803.38 v -759.59 c 0,-165.19 -46.76,-293.09 -140.26,-383.69 -93.53,-90.6 -228.31,-135.9 -404.4,-135.9 -172.07,0 -304.26,44 -396.62,132 -92.36,88.1 -138.54,214.7 -138.54,379.82 v 767.36 h 342.67 v -740.61 c 0,-89.17 16.69,-153.97 50.07,-194.17 33.37,-40.3 82.57,-60.5 147.6,-60.5 69.62,0 120.12,20 151.48,60 31.36,40 47.05,105.5 47.05,196.4 v 738.88 h 340.95" style="fill:currentColor;fill-opacity:1;fill-rule:nonzero;stroke:none" />
      <path d="M 7327.06,2541.4 H 6986.1 v 983.17 h -308.14 v 278.81 h 956.39 V 3524.57 H 7327.06 V 2541.4" style="fill:currentColor;fill-opacity:1;fill-rule:nonzero;stroke:none" />
      <path d="m 8563.96,2541.4 h -749.22 v 1261.98 h 749.22 v -273.63 h -408.27 v -198.53 h 378.07 V 3057.6 h -378.07 v -238.2 h 408.27 v -278" style="fill:currentColor;fill-opacity:1;fill-rule:nonzero;stroke:none" />
      <path d="m 9125.89,3256.99 h 63.87 c 119.12,0 178.68,52.66 178.68,157.96 0,86.89 -58.42,130.34 -175.23,130.34 h -67.32 z m 0,-256.39 v -459.2 h -340.96 v 1261.98 h 413.46 c 342.96,0 514.45,-124.3 514.45,-372.89 0,-146.17 -71.37,-259.25 -214.07,-339.23 l 367.71,-549.86 h -386.69 l -267.59,459.2 h -86.31" style="fill:currentColor;fill-opacity:1;fill-rule:nonzero;stroke:none" />
      <path d="m 3461.79,1436 c 0,-78.2 -19.86,-147.7 -59.55,-208.4 -39.71,-60.7 -96.98,-107.9 -171.78,-141.6 -74.81,-33.6 -162.57,-50.5 -263.26,-50.5 -84.03,0 -154.51,5.9 -211.48,17.7 -56.97,11.8 -116.25,32.4 -177.81,61.7 v 303.9 c 65.02,-33.4 132.63,-59.5 202.84,-78.2 70.21,-18.7 134.66,-28 193.35,-28 50.64,0 87.75,8.8 111.35,26.3 23.59,17.6 35.39,40.2 35.39,67.8 0,17.2 -4.75,32.3 -14.24,45.3 -9.5,12.9 -24.75,26 -45.75,39.3 -21.02,13.2 -76.97,40.2 -167.88,81.1 -82.31,37.4 -144.01,73.7 -185.16,108.8 -41.14,35.1 -71.64,75.3 -91.49,120.8 -19.86,45.5 -29.78,99.3 -29.78,161.4 0,116.2 42.3,206.9 126.89,271.9 84.59,65 200.82,97.6 348.72,97.6 130.61,0 263.83,-30.3 399.64,-90.7 L 3357.34,1979 c -117.96,54 -219.82,81.1 -305.55,81.1 -44.32,0 -76.55,-7.8 -96.67,-23.3 -20.16,-15.5 -30.22,-34.8 -30.22,-57.8 0,-24.8 12.81,-46.9 38.41,-66.5 25.6,-19.6 95.09,-55.3 208.46,-107 108.76,-49 184.28,-101.5 226.58,-157.6 42.29,-56.1 63.44,-126.7 63.44,-211.9" style="fill:currentColor;fill-opacity:1;fill-rule:nonzero;stroke:none" />
      <path d="m 4218.79,2053.2 c -81.13,0 -144.44,-33.2 -189.89,-99.7 -45.47,-66.5 -68.2,-158.1 -68.2,-274.9 0,-242.9 92.36,-364.3 277.08,-364.3 55.8,0 109.91,7.8 162.28,23.3 52.35,15.6 105,34.3 157.96,56.1 v -288.3 c -105.31,-46.6 -224.43,-69.9 -357.36,-69.9 -190.47,0 -336.5,55.3 -438.05,165.8 -101.57,110.4 -152.36,270.1 -152.36,479 0,130.6 24.6,245.4 73.81,344.4 49.2,99 119.97,175.1 212.34,228.3 92.36,53.2 200.96,79.9 325.85,79.9 136.37,0 266.71,-29.7 391,-89 l -104.44,-268.4 c -46.61,21.9 -93.22,40.3 -139.83,55.2 -46.61,15 -96.68,22.5 -150.19,22.5" style="fill:currentColor;fill-opacity:1;fill-rule:nonzero;stroke:none" />
      <path d="m 4804.01,1052.8 v 1261.9 h 342.68 V 1052.8 h -342.68" style="fill:currentColor;fill-opacity:1;fill-rule:nonzero;stroke:none" />
      <path d="m 6168.67,1052.8 h -749.23 v 1261.9 h 749.23 V 2041.1 H 5760.4 v -198.5 h 378.07 V 1569 H 5760.4 v -238.3 h 408.27 v -277.9" style="fill:currentColor;fill-opacity:1;fill-rule:nonzero;stroke:none" />
      <path d="m 7591.18,1052.8 h -447.12 l -460.93,889 h -7.77 c 10.92,-139.8 16.4,-246.5 16.4,-320.2 v -568.8 h -302.11 v 1261.9 h 445.4 l 459.2,-876.9 h 5.17 c -8.05,127.1 -12.08,229.3 -12.08,306.4 v 570.5 h 303.84 V 1052.8" style="fill:currentColor;fill-opacity:1;fill-rule:nonzero;stroke:none" />
      <path d="m 8425.85,2053.2 c -81.13,0 -144.44,-33.2 -189.89,-99.7 -45.47,-66.5 -68.2,-158.1 -68.2,-274.9 0,-242.9 92.36,-364.3 277.08,-364.3 55.8,0 109.91,7.8 162.28,23.3 52.35,15.6 105,34.3 157.96,56.1 v -288.3 c -105.31,-46.6 -224.43,-69.9 -357.36,-69.9 -190.47,0 -336.5,55.3 -438.05,165.8 -101.57,110.4 -152.36,270.1 -152.36,479 0,130.6 24.6,245.4 73.81,344.4 49.2,99 119.97,175.1 212.34,228.3 92.36,53.2 200.96,79.9 325.85,79.9 136.37,0 266.71,-29.7 391,-89 l -104.44,-268.4 c -46.61,21.9 -93.22,40.3 -139.83,55.2 -46.61,15 -96.67,22.5 -150.19,22.5" style="fill:currentColor;fill-opacity:1;fill-rule:nonzero;stroke:none" />
      <path d="M 9760.3,1052.8 H 9011.07 V 2314.7 H 9760.3 V 2041.1 H 9352.03 V 1842.6 H 9730.1 V 1569 h -378.07 v -238.3 h 408.27 v -277.9" style="fill:currentColor;fill-opacity:1;fill-rule:nonzero;stroke:none" />
      <path d="m 6545.79,205.801 c 0,-40.199 -10.2,-75.903 -30.61,-107.1018 -20.41,-31.1992 -49.85,-55.5 -88.3,-72.8008 C 6388.44,8.60156 6343.32,0 6291.57,0 c -43.19,0 -79.42,3 -108.7,9 -29.29,6.1016 -59.75,16.6992 -91.4,31.8008 V 196.898 c 33.42,-17.097 68.18,-30.496 104.26,-40.097 36.09,-9.602 69.22,-14.403 99.39,-14.403 26.02,0 45.09,4.5 57.23,13.5 12.12,9 18.19,20.602 18.19,34.801 0,8.903 -2.44,16.699 -7.32,23.301 -4.88,6.699 -12.72,13.398 -23.51,20.199 -10.8,6.801 -39.56,20.699 -86.3,41.699 -42.3,19.204 -74.03,37.903 -95.17,55.903 -21.15,18.097 -36.82,38.801 -47.02,62.101 -10.2,23.399 -15.31,51.098 -15.31,82.996 0,59.704 21.74,106.301 65.22,139.801 43.48,33.403 103.23,50.102 179.24,50.102 67.14,0 135.61,-15.5 205.42,-46.602 l -53.68,-135.301 c -60.65,27.801 -113,41.704 -157.06,41.704 -22.78,0 -39.35,-4 -49.7,-12 -10.35,-8 -15.53,-17.903 -15.53,-29.704 0,-12.699 6.59,-24.097 19.75,-34.199 13.15,-10 48.88,-28.398 107.15,-55 55.9,-25.097 94.72,-52.097 116.46,-81 21.74,-28.801 32.61,-65.097 32.61,-108.898" style="fill:currentColor;fill-opacity:1;fill-rule:nonzero;stroke:none" />
      <path d="m 6806.66,334 c 0,-125.398 43.63,-188.102 130.89,-188.102 44.36,0 77.26,15.301 98.71,45.704 21.45,30.5 32.17,78 32.17,142.398 0,64.801 -10.87,112.602 -32.61,143.602 -21.74,30.898 -54.21,46.3 -97.38,46.3 -87.85,0 -131.78,-63.3 -131.78,-189.902 z M 7253,334 C 7253,224.898 7226.22,141.898 7172.7,85.1016 7119.15,28.3008 7040.77,0 6937.55,0 6835.79,0 6757.78,28.5 6703.52,85.6016 6649.23,142.699 6622.1,225.801 6622.1,334.898 c 0,108.004 26.98,190.403 80.97,247.403 53.97,56.898 132.44,85.398 235.37,85.398 103.22,0 181.45,-28.301 234.69,-84.797 C 7226.38,526.402 7253,443.5 7253,334" style="fill:currentColor;fill-opacity:1;fill-rule:nonzero;stroke:none" id="path100" />
      <path d="m 7658.96,523 c -41.7,0 -74.25,-17 -97.61,-51.199 -23.37,-34.199 -35.05,-81.301 -35.05,-141.301 0,-124.801 47.47,-187.199 142.42,-187.199 28.68,0 56.49,3.898 83.41,11.898 26.91,8 53.97,17.602 81.19,28.903 V 35.8984 C 7779.19,11.8984 7717.97,0 7649.64,0 c -97.9,0 -172.96,28.3008 -225.16,85.1016 -52.2,56.7964 -78.31,138.8984 -78.31,246.3004 0,67.098 12.65,126.098 37.93,176.996 25.29,50.903 61.67,90 109.14,117.301 47.48,27.403 103.3,41.102 167.49,41.102 70.1,0 137.09,-15.301 200.98,-45.699 l -53.68,-138 c -23.96,11.199 -47.91,20.699 -71.88,28.398 -23.95,7.699 -49.69,11.5 -77.19,11.5" style="fill:currentColor;fill-opacity:1;fill-rule:nonzero;stroke:none" id="path102" />
      <path d="M 7959.76,8.80078 V 657.5 H 8135.9 V 8.80078 h -176.14" style="fill:currentColor;fill-opacity:1;fill-rule:nonzero;stroke:none" id="path104" />
      <path d="M 8661.2,8.80078 H 8276.09 V 657.5 H 8661.2 V 516.801 h -209.85 v -102 h 194.32 V 274.102 H 8451.35 V 151.699 H 8661.2 V 8.80078" style="fill:currentColor;fill-opacity:1;fill-rule:nonzero;stroke:none" id="path106" />
      <path d="M 9060.95,8.80078 H 8885.69 V 514.199 H 8727.3 V 657.5 h 491.59 V 514.199 H 9060.95 V 8.80078" style="fill:currentColor;fill-opacity:1;fill-rule:nonzero;stroke:none" id="path108" />
      <path d="m 9543.21,417 111.8,240.5 H 9844.9 L 9631.49,262.199 V 8.80078 H 9454.92 V 256.801 L 9241.51,657.5 h 190.78 L 9543.21,417" style="fill:currentColor;fill-opacity:1;fill-rule:nonzero;stroke:none" id="path110" />
      <path d="M 5837.8,35.4023 H 18.7109 V 648.801 H 5837.8 V 35.4023" style="fill:currentColor;fill-opacity:1;fill-rule:nonzero;stroke:none" id="path112" />
      <path d="m 2562.92,9229 c -20.83,1.02 -39.97,-4.98 -57.44,-18.02 -12.55,-9.37 -21.83,-21.25 -27.82,-35.67 -5.98,-14.41 -8.03,-31.2 -6.11,-50.35 1.91,-19.16 8,-40.43 18.3,-63.8 10.29,-23.38 25.64,-48.72 46.04,-76.05 3.35,-4.49 6.48,-8.69 9.41,-12.61 2.92,-3.93 6.13,-7.73 9.57,-11.43 l 75.89,241.89 c -24.39,16.32 -47.01,25.01 -67.84,26.04" style="fill:currentColor;fill-opacity:1;fill-rule:nonzero;stroke:none" id="path114" />
      <path d="m 2760.44,9040.43 c -10.49,23.4 -25.84,48.67 -46.08,75.77 -2.85,3.81 -5.83,7.59 -8.98,11.35 -3.15,3.76 -6.06,7.42 -8.75,11.01 l -75.39,-240.48 c 23.39,-16.37 45.52,-24.99 66.37,-25.82 20.85,-0.84 39.9,5.19 57.17,18.07 12.53,9.35 21.82,21.34 27.84,35.95 6.01,14.61 8.11,31.44 6.29,50.49 -1.82,19.04 -7.98,40.25 -18.47,63.66" style="fill:currentColor;fill-opacity:1;fill-rule:nonzero;stroke:none" id="path116" />
      <path d="m 5058.55,7540.21 c -10.48,23.4 -25.84,48.67 -46.07,75.78 -2.85,3.81 -5.86,7.59 -9,11.35 -3.15,3.75 -6.07,7.42 -8.72,11 l -75.4,-240.47 c 23.37,-16.38 45.49,-24.99 66.34,-25.82 20.88,-0.85 39.93,5.18 57.19,18.06 12.54,9.37 21.83,21.35 27.84,35.96 6.02,14.61 8.12,31.44 6.3,50.48 -1.84,19.04 -8.01,40.27 -18.48,63.66" style="fill:currentColor;fill-opacity:1;fill-rule:nonzero;stroke:none" id="path118" />
      <path d="m 4861.04,7728.79 c -20.83,1.02 -39.99,-4.98 -57.47,-18.02 -12.53,-9.37 -21.79,-21.27 -27.79,-35.67 -5.99,-14.42 -8.04,-31.2 -6.13,-50.37 1.91,-19.14 8.02,-40.41 18.3,-63.78 10.3,-23.36 25.64,-48.72 46.05,-76.07 3.34,-4.47 6.48,-8.68 9.41,-12.59 2.92,-3.92 6.11,-7.74 9.57,-11.43 l 75.9,241.89 c -24.4,16.32 -47,25.01 -67.84,26.04" style="fill:currentColor;fill-opacity:1;fill-rule:nonzero;stroke:none" id="path120" />
      <path d="m 5996.46,8576.13 c -20.83,1.03 -40,-4.97 -57.47,-18.02 -12.54,-9.36 -21.82,-21.26 -27.82,-35.67 -5.96,-14.41 -8.02,-31.2 -6.1,-50.36 1.9,-19.14 8.02,-40.41 18.3,-63.79 10.28,-23.37 25.63,-48.71 46.03,-76.06 3.34,-4.47 6.49,-8.68 9.41,-12.6 2.93,-3.92 6.13,-7.73 9.58,-11.43 l 75.91,241.9 c -24.4,16.33 -47.01,25 -67.84,26.03" style="fill:currentColor;fill-opacity:1;fill-rule:nonzero;stroke:none" id="path122" />
      <path d="m 6572.43,8670.01 c -10.5,23.4 -25.86,48.66 -46.08,75.77 -2.84,3.81 -5.85,7.59 -9,11.34 -3.15,3.76 -6.06,7.43 -8.75,11.01 l -75.39,-240.48 c 23.41,-16.36 45.52,-24.97 66.4,-25.81 20.84,-0.84 39.89,5.19 57.15,18.06 12.55,9.36 21.83,21.35 27.85,35.96 6.02,14.61 8.11,31.43 6.29,50.47 -1.84,19.06 -8,40.28 -18.47,63.68" style="fill:currentColor;fill-opacity:1;fill-rule:nonzero;stroke:none" id="path124" />
      <path d="m 6374.91,8858.58 c -20.82,1.02 -39.97,-4.98 -57.46,-18.02 -12.55,-9.38 -21.81,-21.26 -27.79,-35.67 -6,-14.41 -8.05,-31.2 -6.12,-50.36 1.9,-19.14 8,-40.42 18.29,-63.79 10.28,-23.37 25.65,-48.71 46.06,-76.06 3.33,-4.47 6.48,-8.68 9.4,-12.6 2.91,-3.92 6.11,-7.74 9.56,-11.44 l 75.9,241.9 c -24.39,16.33 -47.01,25.01 -67.84,26.04" style="fill:currentColor;fill-opacity:1;fill-rule:nonzero;stroke:none" id="path126" />
      <path d="m 6753.4,9141.02 c -20.83,1.03 -40,-4.96 -57.46,-18.01 -12.58,-9.37 -21.84,-21.26 -27.82,-35.67 -6,-14.42 -8.03,-31.2 -6.12,-50.36 1.92,-19.14 8.03,-40.42 18.31,-63.79 10.29,-23.36 25.63,-48.73 46.04,-76.07 3.33,-4.48 6.47,-8.68 9.39,-12.59 2.94,-3.93 6.14,-7.74 9.58,-11.44 l 75.91,241.9 c -24.41,16.33 -47.01,25.01 -67.83,26.03" style="fill:currentColor;fill-opacity:1;fill-rule:nonzero;stroke:none" id="path128" />
      <path d="m 7888.8,9988.37 c -20.82,1.03 -39.99,-4.98 -57.46,-18.02 -12.54,-9.37 -21.83,-21.26 -27.82,-35.67 -5.97,-14.41 -8.02,-31.19 -6.11,-50.35 1.92,-19.16 8.02,-40.42 18.3,-63.8 10.29,-23.37 25.64,-48.72 46.04,-76.06 3.34,-4.48 6.48,-8.69 9.4,-12.6 2.93,-3.92 6.14,-7.73 9.58,-11.43 l 75.91,241.9 c -24.39,16.33 -47.01,25.01 -67.84,26.03" style="fill:currentColor;fill-opacity:1;fill-rule:nonzero;stroke:none" id="path130" />
      <path d="m 6950.89,8952.46 c -10.47,23.4 -25.84,48.65 -46.09,75.76 -2.84,3.82 -5.82,7.6 -8.97,11.35 -3.14,3.76 -6.06,7.43 -8.74,11.01 l -75.4,-240.48 c 23.39,-16.38 45.5,-24.99 66.38,-25.81 20.87,-0.84 39.92,5.19 57.14,18.06 12.58,9.36 21.86,21.35 27.88,35.96 6.01,14.61 8.11,31.43 6.27,50.48 -1.82,19.05 -7.97,40.27 -18.47,63.67" style="fill:currentColor;fill-opacity:1;fill-rule:nonzero;stroke:none" id="path132" />
      <path d="m 8086.29,9799.8 c -10.48,23.4 -25.83,48.66 -46.08,75.76 -2.84,3.82 -5.83,7.61 -8.97,11.36 -3.15,3.76 -6.06,7.43 -8.75,11.01 l -75.39,-240.48 c 23.39,-16.38 45.52,-24.98 66.37,-25.82 20.87,-0.84 39.92,5.18 57.16,18.07 12.55,9.36 21.83,21.35 27.85,35.96 6.01,14.61 8.12,31.43 6.28,50.47 -1.83,19.06 -7.98,40.28 -18.47,63.67" style="fill:currentColor;fill-opacity:1;fill-rule:nonzero;stroke:none" id="path134" />
      <path d="m 6193.96,8387.56 c -10.48,23.4 -25.84,48.66 -46.07,75.77 -2.86,3.81 -5.85,7.6 -8.99,11.34 -3.16,3.75 -6.07,7.44 -8.75,11.01 l -75.39,-240.46 c 23.38,-16.4 45.51,-24.99 66.36,-25.83 20.87,-0.84 39.91,5.19 57.18,18.06 12.55,9.37 21.84,21.36 27.85,35.97 6.02,14.61 8.12,31.43 6.27,50.46 -1.81,19.06 -7.98,40.29 -18.46,63.68" style="fill:currentColor;fill-opacity:1;fill-rule:nonzero;stroke:none" id="path136" />
      <path d="m 8300.68,9842.82 111.94,83.53 -136.44,182.85 266.75,-199.14 -187.81,-140.17 z m -121.74,-192.37 c -14.05,-26.53 -35.08,-50.25 -63.11,-71.16 -24.18,-18.05 -49.66,-30.44 -76.41,-37.15 -26.74,-6.7 -54.31,-6.43 -82.74,0.79 -28.42,7.24 -57.38,21.98 -86.93,44.25 -29.53,22.27 -59.07,53.24 -88.69,92.9 -26.91,36.07 -47.01,71.3 -60.3,105.7 -13.27,34.4 -19.73,67 -19.35,97.81 0.37,30.82 7.71,59.57 21.96,86.26 14.27,26.69 35.3,50.45 63.1,71.15 24.18,18.1 49.65,30.4 76.42,37.1 26.73,6.8 54.22,6.5 82.44,-0.7 28.21,-7.2 57.11,-21.9 86.63,-44.2 29.52,-22.3 59.15,-53.35 88.93,-93.24 26.91,-36.06 47.11,-71.27 60.52,-105.57 13.38,-34.32 19.82,-66.91 19.33,-97.8 -0.49,-30.91 -7.74,-59.62 -21.8,-86.14 z m -580.78,-445.46 -54.42,72.95 111.93,83.53 -210.71,282.33 -57.33,-126.52 -76.82,46.82 84.55,177.7 68.92,51.42 275.42,-369.05 96.47,71.99 54.43,-72.95 z m -378.46,-282.45 -54.43,72.94 111.94,83.54 -210.73,282.33 -57.34,-126.52 -76.79,46.81 84.55,177.72 68.92,51.42 275.4,-369.05 96.48,71.99 54.43,-72.94 z m -176.18,-119.43 c -14.05,-26.54 -35.08,-50.26 -63.08,-71.15 -24.19,-18.08 -49.68,-30.44 -76.43,-37.15 -26.74,-6.72 -54.3,-6.45 -82.73,0.77 -28.43,7.24 -57.39,21.98 -86.91,44.26 -29.55,22.26 -59.1,53.23 -88.72,92.9 -26.9,36.07 -47.01,71.29 -60.3,105.7 -13.27,34.39 -19.72,67 -19.35,97.8 0.37,30.83 7.69,59.57 21.97,86.27 14.27,26.69 35.3,50.42 63.07,71.14 24.21,18.07 49.67,30.44 76.42,37.14 26.75,6.72 54.24,6.46 82.46,-0.72 28.21,-7.22 57.11,-21.94 86.63,-44.21 29.52,-22.26 59.19,-53.35 88.95,-93.24 26.9,-36.06 47.08,-71.28 60.47,-105.58 13.41,-34.31 19.84,-66.91 19.35,-97.8 -0.49,-30.91 -7.76,-59.6 -21.8,-86.13 z m -378.46,-282.45 c -14.06,-26.54 -35.08,-50.26 -63.08,-71.16 -24.21,-18.06 -49.68,-30.44 -76.42,-37.14 -26.75,-6.7 -54.34,-6.45 -82.74,0.78 -28.43,7.23 -57.41,21.97 -86.93,44.25 -29.53,22.26 -59.09,53.23 -88.69,92.89 -26.94,36.08 -47.03,71.32 -60.31,105.71 -13.29,34.39 -19.75,66.99 -19.35,97.81 0.37,30.82 7.69,59.57 21.96,86.26 14.28,26.7 35.29,50.41 63.09,71.15 24.21,18.06 49.67,30.44 76.41,37.15 26.75,6.7 54.22,6.44 82.45,-0.74 28.23,-7.2 57.1,-21.94 86.63,-44.22 29.52,-22.25 59.18,-53.34 88.96,-93.23 26.91,-36.06 47.06,-71.27 60.47,-105.58 13.38,-34.3 19.84,-66.9 19.36,-97.8 -0.49,-30.91 -7.77,-59.61 -21.81,-86.13 z m -378.48,-282.45 c -14.04,-26.54 -35.06,-50.25 -63.08,-71.16 -24.2,-18.06 -49.67,-30.43 -76.42,-37.14 -26.75,-6.7 -54.32,-6.44 -82.74,0.78 -28.42,7.23 -57.39,21.97 -86.94,44.25 -29.52,22.26 -59.09,53.23 -88.68,92.9 -26.91,36.06 -47.01,71.31 -60.3,105.71 -13.27,34.39 -19.74,66.98 -19.36,97.8 0.37,30.81 7.72,59.57 21.97,86.26 14.26,26.7 35.3,50.41 63.07,71.15 24.21,18.06 49.68,30.44 76.43,37.14 26.75,6.71 54.24,6.46 82.46,-0.74 28.21,-7.19 57.11,-21.93 86.63,-44.21 29.52,-22.25 59.16,-53.34 88.93,-93.23 26.92,-36.07 47.09,-71.27 60.47,-105.58 13.41,-34.3 19.85,-66.9 19.36,-97.8 -0.49,-30.9 -7.76,-59.61 -21.8,-86.13 z m -580.76,-445.46 -54.42,72.95 111.9,83.52 -210.69,282.33 -57.35,-126.52 -76.78,46.82 84.55,177.71 68.88,51.42 275.44,-369.05 96.48,71.99 54.42,-72.94 z m -378.46,-282.45 -54.45,72.95 111.93,83.53 -210.69,282.33 -57.34,-126.52 -76.82,46.82 84.56,177.71 68.91,51.41 275.41,-369.04 96.47,71.99 54.44,-72.95 z m -176.2,-119.44 c -14.04,-26.53 -35.05,-50.25 -63.05,-71.15 -24.21,-18.06 -49.68,-30.43 -76.43,-37.15 -26.74,-6.7 -54.34,-6.43 -82.74,0.79 -28.43,7.22 -57.41,21.96 -86.93,44.24 -29.52,22.27 -59.09,53.23 -88.7,92.89 -26.92,36.08 -47.02,71.32 -60.31,105.72 -13.27,34.38 -19.72,66.99 -19.34,97.8 0.37,30.83 7.7,59.57 21.97,86.26 14.27,26.7 35.29,50.42 63.08,71.16 24.2,18.06 49.67,30.43 76.42,37.14 26.74,6.7 54.22,6.46 82.46,-0.74 28.21,-7.2 57.09,-21.94 86.61,-44.2 29.54,-22.26 59.18,-53.35 88.94,-93.24 26.94,-36.07 47.1,-71.27 60.49,-105.58 13.38,-34.31 19.85,-66.91 19.36,-97.8 -0.49,-30.91 -7.77,-59.62 -21.83,-86.14 z M 4791.47,7164.45 4687,7240.94 c -2.05,5.48 -4.34,11.09 -6.92,16.83 -10.49,23.39 -25.84,48.66 -46.09,75.77 -2.84,3.8 -5.83,7.59 -8.97,11.33 -3.16,3.77 -6.07,7.44 -8.75,11.02 l -16.11,-51.37 -70,51.26 20.25,64.52 c -24.39,16.34 -47,25.01 -67.83,26.03 -19.59,0.97 -37.64,-4.51 -54.26,-16 l -69.37,50.79 c 6.63,6.16 13.63,12.14 21.28,17.85 24.2,18.06 49.67,30.43 76.43,37.15 26.74,6.7 54.23,6.44 82.45,-0.75 28.21,-7.2 57.11,-21.93 86.63,-44.2 29.52,-22.27 59.17,-53.34 88.95,-93.23 26.91,-36.08 47.08,-71.28 60.48,-105.58 13.37,-34.32 19.83,-66.92 19.34,-97.8 -0.16,-10.32 -1.37,-20.28 -3.04,-30.11 z m -688.34,503.98 -76.81,56.23 87.88,65.59 -210.72,282.34 -57.35,-126.53 -76.78,46.82 84.54,177.71 68.9,51.42 275.43,-369.05 96.47,71.98 54.43,-72.93 z m -560.15,653.71 -54.44,72.95 111.92,83.53 -210.69,282.34 -57.35,-126.53 -76.81,46.82 84.56,177.71 68.9,51.42 275.42,-369.05 96.47,71.99 54.44,-72.94 z m -164.78,-122.96 -349.31,255.76 -17.6,23.57 -3.64,-8.03 -71.5,52.35 25.54,53.68 68.91,51.42 275.43,-369.05 96.47,72 54.43,-72.94 z m -502.16,1250.15 -57.35,-126.53 -76.81,46.83 78.3,164.56 273.78,-201.58 76.81,-102.91 31.27,23.33 76.61,-56.39 -249.41,-186.12 -54.43,72.94 111.94,83.53 z m -22.97,-558.26 c -14.05,-26.53 -35.08,-50.24 -63.09,-71.15 -24.2,-18.06 -49.67,-30.44 -76.42,-37.15 -26.74,-6.69 -54.31,-6.44 -82.74,0.8 -28.42,7.21 -57.38,21.96 -86.91,44.23 -29.54,22.28 -59.12,53.24 -88.7,92.9 -26.93,36.08 -47.02,71.32 -60.31,105.71 -13.3,34.39 -19.74,67 -19.35,97.81 0.38,30.82 7.7,59.57 21.96,86.26 14.27,26.7 35.3,50.42 63.08,71.15 24.2,18.06 49.67,30.44 76.42,37.15 26.75,6.69 54.24,6.46 82.46,-0.75 28.22,-7.19 57.09,-21.93 86.62,-44.19 29.54,-22.28 59.18,-53.36 88.95,-93.24 26.91,-36.08 47.09,-71.28 60.47,-105.58 13.41,-34.32 19.86,-66.92 19.35,-97.82 -0.48,-30.89 -7.76,-59.61 -21.79,-86.13 z m -716.02,525.36 -54.43,72.95 111.93,83.53 -210.71,282.34 -57.35,-126.52 -76.8,46.81 84.55,177.7 68.91,51.46 275.42,-369.09 96.48,72 54.43,-72.94 z m -208.7,-155.75 -198.54,145.36 -124.44,166.76 -25.74,-56.8 -72.32,52.95 48.47,101.85 68.91,51.42 275.42,-369.04 96.46,71.98 54.44,-72.94 z m -728.3,621.71 288.37,223.71 48.87,-65.5 -292.43,-218.24 z m 558.61,433.31 74.13,-54.6 -209.46,-156.3 -50.07,67.1 z M 4001.35,8664.57 c -5.67,-1.98 -11.35,-3.82 -17.12,-5.27 -26.74,-6.7 -54.33,-6.43 -82.75,0.78 -28.42,7.24 -57.4,21.99 -86.92,44.26 -29.52,22.26 -59.09,53.22 -88.7,92.89 -26.91,36.08 -47.02,71.31 -60.31,105.71 -1.55,3.99 -2.67,7.88 -4.04,11.82 z m 180.54,-265.93 c 14.28,26.7 35.31,50.4 63.09,71.13 3.58,2.68 7.25,4.98 10.89,7.4 l 81.98,-60.35 c -17.18,-0.97 -33.22,-6.66 -47.99,-17.68 -12.54,-9.38 -21.82,-21.26 -27.82,-35.67 -5.99,-14.41 -8.02,-31.2 -6.1,-50.36 1.91,-19.16 8.01,-40.41 18.29,-63.79 10.29,-23.37 25.64,-48.73 46.04,-76.06 3.35,-4.48 6.49,-8.68 9.4,-12.6 2.94,-3.93 6.13,-7.73 9.59,-11.44 l 67.95,216.54 69.92,-51.48 -71.5,-228.03 c 23.38,-16.39 45.51,-25 66.36,-25.83 20.86,-0.84 39.91,5.17 57.18,18.06 12.55,9.36 21.83,21.35 27.85,35.97 6.02,14.6 8.12,31.43 6.27,50.46 -1.82,19.06 -7.98,40.28 -18.47,63.67 -8.82,19.71 -21.31,40.82 -37.07,63.15 l 150.9,-111.1 c 0.3,-5.11 0.7,-10.24 0.61,-15.26 -0.5,-30.9 -7.78,-59.62 -21.81,-86.15 -14.04,-26.52 -35.08,-50.24 -63.08,-71.14 -24.21,-18.06 -49.66,-30.44 -76.42,-37.15 -26.75,-6.7 -54.32,-6.44 -82.74,0.79 -28.42,7.22 -57.39,21.97 -86.93,44.24 -29.53,22.27 -59.1,53.24 -88.69,92.89 -26.92,36.09 -47.01,71.33 -60.3,105.71 -13.29,34.4 -19.74,67.01 -19.36,97.82 0.38,30.81 7.7,59.57 21.96,86.26 z m 3933.52,1830.56 71.54,-53.4 -42.41,-93.6 -76.8,46.8 z m 346.95,-110 -141.87,105.9 v 0 l -138.76,103.5 -161.93,120.9 -3128.86,-2291.62 -3134.17,2307.52 -406.69,-315.5 -28.61,-21.4 0.4,-0.5 -82.87,-64.3 -1.56,2.1 -294.413,-219.75 5.645,-7.56 -5.645,-4.38 19.618,-14.36 1.628,-2.19 61.587,-45.07 0.66,0.49 76.81,-56.23 -0.64,-0.48 648.23,-474.45 0.54,0.4 76.8,-56.23 -0.53,-0.39 259.51,-189.93 0.47,0.36 174,-127.39 1.09,-1.46 213.17,-156.01 0.41,0.3 76.8,-56.23 -0.4,-0.29 330.97,-242.25 0.19,0.38 73.36,-53.71 -0.17,-0.36 243.88,-178.51 0.29,0.22 76.82,-56.24 -0.29,-0.2 259.5,-189.93 0.24,0.18 23.18,-16.97 0.55,-0.75 737.86,-540.04 c 0.01,0.04 0.02,0.09 0.03,0.13 l 100.96,-73.92 c 0.02,-0.05 0.05,-0.1 0.06,-0.16 l 92.16,-67.46 0.03,0.09 70.04,-51.29 -0.03,-0.06 103.13,-75.49 c 0.01,0.02 0.02,0.02 0.03,0.04 l 68.64,-50.25 c -0.01,0 -0.01,-0.02 -0.02,-0.02 l 179.46,-131.35 3913.06,2920.21 -364.35,271.96" style="fill:currentColor;fill-opacity:1;fill-rule:nonzero;stroke:none" id="path138" />
      <path d="m 1113.49,9896.1 99.5,-178.05" style="fill:currentColor;fill-opacity:1;fill-rule:nonzero;stroke:none" id="path140" />
    </g>
  </g>
</svg>